<svg width="60" height="60" viewBox="0 0 60 60" fill="none" xmlns="http://www.w3.org/2000/svg">
  <rect width="60" height="60" rx="12" fill="#000000"/>
  <path d="M15 22C15 20.8954 15.8954 20 17 20H28C29.1046 20 30 20.8954 30 22V28C30 29.1046 29.1046 30 28 30H17C15.8954 30 15 29.1046 15 28V22Z" fill="#FFFFFF"/>
  <path d="M32 22C32 20.8954 32.8954 20 34 20H43C44.1046 20 45 20.8954 45 22V28C45 29.1046 44.1046 30 43 30H34C32.8954 30 32 29.1046 32 28V22Z" fill="#FFFFFF"/>
  <path d="M15 32C15 30.8954 15.8954 30 17 30H28C29.1046 30 30 30.8954 30 32V38C30 39.1046 29.1046 40 28 40H17C15.8954 40 15 39.1046 15 38V32Z" fill="#FFFFFF"/>
  <path d="M32 32C32 30.8954 32.8954 30 34 30H43C44.1046 30 45 30.8954 45 32V38C45 39.1046 44.1046 40 43 40H34C32.8954 40 32 39.1046 32 38V32Z" fill="#FFFFFF"/>
</svg>
